<svg width="80" height="71" fill="none" xmlns="http://www.w3.org/2000/svg"><g clip-path="url(#clip0_7_1231)"><path fill-rule="evenodd" clip-rule="evenodd" d="M26.23 46.576l-2.33 9.542c-.195.763-.631 1.42-1.314 1.966-.683.547-1.405.823-2.16.823l3.016-12.331h-3.73l-.385 1.87-2.989 12.33h3.626c1.769 0 3.45-.675 5.046-2.022 1.596-1.348 2.61-2.933 3.047-4.756l1.347-5.553.455-1.869h-3.63z" fill="#E50539"/><path fill-rule="evenodd" clip-rule="evenodd" d="M36.814 40.885c-.316-.37-.738-.557-1.264-.557-.528 0-1.01.186-1.45.557-.436.37-.698.814-.784 1.33-.092.538.023.989.339 1.36.313.37.734.556 1.26.556.528 0 1.012-.19 1.453-.569.436-.38.702-.827.788-1.346.085-.517-.029-.962-.342-1.331zm-3.55 16.673a1.05 1.05 0 01.04-.14c.018-.057.031-.09.034-.112l2.706-10.625h-6.27l-.478 1.86h2.51l-2.254 8.765a1.682 1.682 0 00-.082.336c-.162.96.088 1.722.747 2.289.659.562 1.637.845 2.937.845h.564l.48-1.86c-.752-.108-1.066-.562-.933-1.358m10.233-.751c-.145.576-.464 1.072-.958 1.482-.495.41-1.022.614-1.577.614-1.04 0-1.476-.52-1.314-1.567.003-.015.015-.062.036-.137.021-.075.034-.132.04-.17l1.726-7.183c.236-.93.73-1.397 1.484-1.397h2.583l-2.02 8.358zm3.354 1.062a.532.532 0 01.034-.112.489.489 0 00.03-.11l2.662-11.071h-6.212c-1.294 0-2.496.379-3.609 1.134-1.115.755-1.805 1.7-2.073 2.835l-1.502 6.262c-.038.118-.065.24-.08.363-.166 1.044.126 1.905.88 2.585.753.68 1.739 1.021 2.96 1.021h.563c1.058 0 2.04-.382 2.95-1.147.456.765 1.309 1.147 2.563 1.147h1.266l.455-1.873c-.693-.038-.989-.383-.887-1.034zm17.637-7.631l-.048.307-1.507 6.262c-.161.67-.425 1.187-.789 1.55-.363.364-.742.546-1.14.546-.36 0-.636-.167-.828-.505-.19-.335-.242-.76-.16-1.284a.85.85 0 01.04-.153c.014-.05.026-.102.036-.154l1.507-6.262c.151-.614.403-1.112.752-1.494.349-.382.74-.574 1.173-.574a.9.9 0 01.819.461c.184.31.236.743.145 1.3zm2.76-2.64c-.75-.68-1.735-1.022-2.963-1.022h-.567a6.283 6.283 0 00-3.66 1.147c-1.103.764-1.789 1.707-2.056 2.822l-1.536 6.262c-.038.118-.065.24-.082.363-.17 1.063.124 1.927.885 2.6.758.67 1.762 1.006 3.005 1.006h.54c1.319 0 2.532-.389 3.647-1.159 1.115-.774 1.804-1.71 2.071-2.81l1.534-6.262.058-.36c.163-1.046-.128-1.908-.876-2.588z" fill="#E50539"/><mask id="a" style="mask-type:alpha" maskUnits="userSpaceOnUse" x="67" y="46" width="13" height="15"><path d="M67.73 46.207h12.163v13.94H67.73v-13.94z" fill="#fff"/></mask><g mask="url(#a)"><path fill-rule="evenodd" clip-rule="evenodd" d="M78.64 46.207c-1.505 0-2.808.394-3.905 1.181l.281-1.181h-3.718L67.73 60.148h3.737l1.94-7.627c.247-.935.731-1.808 1.453-2.62.722-.815 1.534-1.377 2.443-1.688l-.443 1.811h2.037l.997-3.817H78.64z" fill="#E50539"/></g><path fill-rule="evenodd" clip-rule="evenodd" d="M9.365 50.8l.006-.041 1.68-6.655a2.566 2.566 0 01.778-1.377c.395-.358.843-.538 1.332-.538.46 0 .796.155 1.02.473.218.31.294.712.218 1.191l-.042.251-1.68 6.655-.011.041h-3.3zm7.645-9.419c-.838-.7-1.963-1.053-3.384-1.053-1.55 0-2.911.395-4.095 1.18-1.185.783-1.934 1.824-2.252 3.123l-1.521 6.128c-1.285 0-2.475.005-3.4.005-1.31 0-2.358 1.083-2.358 2.412h5.157l-1.88 7.6h3.63l1.887-7.6H12.1l-1.173 4.716c-.04.116-.067.236-.082.359-.13.796.023 1.418.465 1.861.436.443 1.102.664 1.992.664h1.45l.466-1.861c-.525-.036-.743-.323-.654-.856l3.318-13.428a1.66 1.66 0 01.047-.222c.03-.114.041-.186.047-.227.189-1.161-.135-2.095-.966-2.8zm39.457 4.996l.816-3.209h-3.605l-.79 3.21h-1.77l-.458 1.824h1.773L50.28 56.83a2.527 2.527 0 01-.046.193 1.92 1.92 0 00-.042.192c-.15.924.027 1.654.53 2.19.507.534 1.27.803 2.292.803h1.266l.461-1.852c-.741-.07-1.049-.497-.922-1.278a.849.849 0 01.036-.138c.015-.055.027-.088.03-.11l2.15-8.628h1.534l.458-1.825h-1.561zM53.08 21.584l-8.01-1.666 8.008-3.446 1.57 1.954-1.568 3.158zm-37.305 14.2v.01l.015-.01h-.015z" fill="#E50539"/><path fill-rule="evenodd" clip-rule="evenodd" d="M49.425 22.652c-.287.428-.957 1.222-1.943 1.06-.48-.082-20.056-4.07-20.105-4.073-.138-.037-.119-.333.13-.303l21.789 3.017c.137.023.212.18.13.3m-.735-7.158l-2.939 1.513s-.683-.416.086-.764c.197-.09.649-.348 1.014-.54a.267.267 0 00.142-.25.27.27 0 00-.168-.236l-2.185-.88c.37-.295.943-.471 1.491-.307.318.098 1.645.66 2.518 1.026.268.113.205.356.04.438zm-6.927 2.022c-.313.225-2.377-.162-2.377-.162s2.284-2.037 4.456-2.298c.647-.077 1.954.43 1.954.43s-2.914 1.222-4.032 2.03zm22.288-.109c-.966-2.122-1.675-3.934-1.928-4.368-.738-1.254-1.838-1.188-2.782-1.023-2.517.435-3.499.88-7.936 2.063-.653.18-1.884.543-2.562.307-1.798-.617-2.342-1.112-3.203-1.014-1.336.153-4.081 1.448-7.06 3.635-.933.673-.825 1.478-.989 2.01a.19.19 0 00.16.242c.433.046 5.162.458 5.378.488a.197.197 0 01-.108-.176c0-.063.03-.127.097-.16 1.35-.731 6.25-3.336 9.212-4.508 4.05-1.613 5.027-1.786 6.258-1.902.287-.026.69-.007.985.011a.588.588 0 01.521.386c.56 1.647 2.197 5.368 3.062 6.6 0 0-.152.292-.444.306-.227.005-.69-.425-.977-.68a.195.195 0 00-.227-.015c-4.856 3.006-8.358 4.317-8.861 4.496a.166.166 0 01-.127-.004l-2.48-.928s.093-.08.325-.543a.771.771 0 00.07-.31c-.019-.398-.399-.488-.57-.51-.66-.083-18.387-2.707-22.832-3.145-1.887-.19-3.68.778-4.457 1.793l.004.026L25.1 23.12a.18.18 0 00.212.04l1.98-.914s.272.842.02.985c-1.646.905-3.238 1.715-4.778 2.527-.62.329-.605.95-.806 1.823a7.93 7.93 0 00-.127.7s3.454-1.737 5.568-2.752a.188.188 0 01.217.042c.302.325.4.4.606.606a.188.188 0 01-.044.3c-.5.265-1.015.538-1.41.774-.313.188.005.813.005.813l5.746-2.732s.359.355-.276.748c-.98.617-10.042 5.255-10.822 5.275-2.054.052-5.933-3.83-7.335-4.422-1.182-.498-2.454.314-4.18 1.333-.47.28-.184.958-.184.958l2.503-1.272s.31.359-.037.576c-1.212.771-2.965 1.542-3.234 1.737-.395.284-.243 1.617-.243 1.617l2.367-1.102c.071-.033.16-.022.194.012l5.074 4.849a5.69 5.69 0 00.94-.318l-4.233-4.519a.19.19 0 01.052-.3c.432-.22.951-.381 1.682.18.615.468 2.767 2.217 4.848 2.03.694-.06.705.153.705.153s-.884.427-1.932 1.003c-.518.288-.096 1.048-.096 1.048 5.362-2.208 11.967-4.956 12.892-5.357a.194.194 0 01.19.027l1.551 1.235c.22.344 11.252-3.912 14.654-5.638.19-.094 1.92-.015 2.755-.023.385 0 .37.169.37.169S22.883 36.378 16.11 36.123l-.011.007-1.443.622c.847.561.645 1.53 2.084.782.086.199.187.408.292.633.28.61.28.614 2.11-.012 5.18-1.759 28.478-8.748 33.696-10.916 2.946-1.22 7.018-2.905 9.558-4.485 2.506-1.553 3.017-2.355 1.656-5.346m-.798-3.77c-.026.005-.057.01-.084.02a.218.218 0 00-.072.048l.281-.074c-.047 0-.083.006-.125.006zm7.64 15.27l-.038.058-.041-.059c-.026-.037-2.588-3.788-3.514-5.24-.28-.439.048-.658.048-.658l.038-.023.026.034c.13.163 3.152 4.079 3.544 4.799.298.538-.049 1.066-.064 1.088zm.619-.773c-.164-.655-1.366-4.988-2.061-6.578l-3.167-5.653c-.302.405-.657.84-.997 1.155a.995.995 0 01-.209.134.823.823 0 01-.291.067l1.706 5.574c.254.896.848 1.657 1.36 2.43.257.382 2.072 3.075 2.77 4.107.146.216.47.223.613.004.253-.387.377-.854.276-1.24" fill="#E50539"/><mask id="b" style="mask-type:alpha" maskUnits="userSpaceOnUse" x="58" y="0" width="8" height="14"><path d="M58.181.11h7.075v13.387H58.18V.11z" fill="#fff"/></mask><g mask="url(#b)"><path fill-rule="evenodd" clip-rule="evenodd" d="M62.435 6.89l-.038.023-.026-.034c-.13-.172-3.201-4.175-3.608-4.916-.296-.555.053-1.092.069-1.114l.037-.057.042.057c.027.041 2.638 3.885 3.578 5.367.285.45-.05.67-.053.673v.001zm.95.399c-.353-1.198-.957-1.973-1.482-2.768C60.953 3.096 60 1.673 59.045.25a.322.322 0 00-.418-.1.323.323 0 00-.115.105c-.278.414-.399.935-.292 1.353.171.665 1.354 5.08 2.06 6.706l2.942 5.182a.813.813 0 01.267-.194.671.671 0 01.22-.053 19.75 19.75 0 011.547-.011l-1.87-5.95z" fill="#E50539"/></g><path fill-rule="evenodd" clip-rule="evenodd" d="M64.052 15.238l-.466-.996s-.084-.149.108-.227a.209.209 0 01.05-.018s1.925-.063 2.528.046c.32.06.332.167.332.167l-2.552 1.028zm2.643-1.453c-.804-.167-2.327-.178-3.238-.125-.038 0-.065 0-.1.004-.018.004-.041.007-.064.014a.169.169 0 00-.057.036c-.104.07-.168.209-.123.315.416.985.881 1.948 1.393 2.886.069.13.27.152.416.096a.442.442 0 00.084-.05 8.496 8.496 0 001.972-2.573c.14-.298.052-.533-.283-.603zm-9.772-.153s-.345 1.439-.888 3.1L55.03 15.45l-.814.374 1.481 1.895c-.462 1.278-1.02 2.549-1.613 3.298l1.486-.682c.338-.317.61-.957.823-1.725l.816 1.043.82-.376-1.384-1.766c.3-1.596.385-3.333.278-3.878zm-6.078 53.392h-21.69c-.542 0-.986-.511-.986-1.136 0-.625.444-1.136.986-1.136h21.69c.542 0 .986.511.986 1.136 0 .625-.444 1.136-.986 1.136zM46.901 71H33.099c-.543 0-.987-.511-.987-1.136 0-.625.444-1.136.987-1.136H46.9c.543 0 .987.511.987 1.136 0 .625-.445 1.136-.987 1.136z" fill="#E50539"/></g><defs><clipPath id="clip0_7_1231"><path fill="#fff" d="M0 0h80v71H0z"/></clipPath></defs></svg>