<svg width="280" height="48" fill="none" xmlns="http://www.w3.org/2000/svg"><g clip-path="url(#clip0_1_568)"><path d="M73.158 47.527c13.123 0 23.762-10.638 23.762-23.762C96.92 10.642 86.281.003 73.158.003c-13.124 0-23.763 10.639-23.763 23.762 0 13.124 10.64 23.762 23.763 23.762z" fill="#FB4D00"/><path fill-rule="evenodd" clip-rule="evenodd" d="M119.471 8.104c5.673-.118 9.249 1.314 13.085 2.62l-3.792 7.804c-1.769-.965-13.116-4.378-13.371-.495.015 1.73 2.395 2.118 4.363 2.613 5.023 1.265 9.821 2.393 10.714 7.854 1.621 9.891-11.363 13.77-20.954 12.23-2.939-.472-6.492-1.142-8.533-2.824l4.077-7.71c4.696 3.168 14.984 5.191 14.791 1.105-.119-1.467-3.016-1.997-4.93-2.562-3.047-.899-6.67-1.756-8.439-3.964-5.102-6.367 1.362-13.476 6.258-15.415a18.339 18.339 0 016.731-1.256zM6.07 9.13l10.715.061C18.522 14.76 20.26 20.33 22 25.9l.19-.096c3.98-5.587 7.963-11.175 11.946-16.763l10.808-.034-6.068 31.664-10.43.034 2.655-14.358-.095.19-10.24 14.192-3.129.01-4.456-13.955h-.095L10.431 40.76l-10.43.034L6.07 9.129zm163.655-.52l-1.421 7.893-9.578.03-4.551 23.772-10.429.033v-.285l4.551-23.486-9.198.029v-.285l1.517-7.607 29.109-.093zm71.683 7.66l-15.551.05c-.22 1.331-.442 2.662-.664 3.994l13.749-.044-1.517 7.892-13.844.044-.757 3.994 15.739-.05v.094l-1.518 7.797-26.169.084v-.096c2.055-10.521 4.109-21.045 6.163-31.569l25.885-.082c-.504 2.63-1.009 5.262-1.516 7.893zm9.387-7.916l29.203-.093-1.517 7.891-9.576.126c-1.518 7.892-3.035 15.784-4.551 23.677l-10.431.033 4.647-23.676v-.095l-9.293.029 1.518-7.892zm-73.01.326c8.081-.118 20.599-1.258 25.315 2.106 2.818 2.01 3.422 6.96 1.139 10.07-1.061 1.443-2.599 2.009-4.078 3.053v.095c5.482 1.684 5.093 9.84 1.139 12.92-5.958 4.643-19.436 3.332-29.868 3.326l6.353-31.57zm7.87 11.759c3.634.106 8.716.533 7.773-2.843-.59-1.293-5.178-1.597-7.11-1.055l-.663 3.898zm-1.612 7.893l-.759 3.993c3.713.084 9.232.995 8.723-2.879-.192-.589-.487-.885-.853-1.026-1.09-.589-5.477-.112-7.111-.088zM73.39 6.16l4.931 11.388 12.516 1.005-9.482 8.298L84.2 38.91l-10.904-6.333-10.62 6.401L65.521 26.9l-9.482-8.237 12.516-1.085c1.612-3.806 3.224-7.612 4.835-11.42z" fill="#fff"/></g><defs><clipPath id="clip0_1_568"><path fill="#fff" d="M0 0h280v47.53H0z"/></clipPath></defs></svg>