<svg width="140" height="34" fill="none" xmlns="http://www.w3.org/2000/svg"><g clip-path="url(#clip0_1_131)" fill="#FF2400"><path d="M28.195 10.777h9.138V33.68h-9.138V10.777zm39.86 1.925h15.556v7.89H68.056v-7.89zM32.764 9.045c2.523 0 4.57-2.025 4.57-4.522 0-2.498-2.047-4.523-4.57-4.523-2.524 0-4.57 2.025-4.57 4.523 0 2.497 2.046 4.522 4.57 4.522z"/><path fill-rule="evenodd" clip-rule="evenodd" d="M65.528 12.307C65.488 5.503 59.746 0 52.714 0S39.998 5.447 39.9 12.213l-.038 20.311v1.155h9.527V12.568h.001a3.7 3.7 0 01-.001-.095c0-1.922 1.567-3.48 3.5-3.48a3.49 3.49 0 013.499 3.575v21.111h9.14V12.307zM0 33.68h9.22V13.83c0-3.221 1.172-4.841 3.535-4.841.996 0 1.836.328 2.54 1.003.703.675 1.054 1.485 1.054 2.45 0 .945-.332 1.774-1.015 2.469-.684.694-1.485 1.041-2.442 1.041-.674 0-1.333-.241-2.003-.711v9.824c.946.098 1.679.146 2.198.146 3.4 0 6.349-1.254 8.849-3.742 2.48-2.489 3.73-5.459 3.73-8.893 0-3.53-1.25-6.5-3.77-8.93C19.378 1.215 16.292 0 12.639 0c-1.836 0-3.633.405-5.372 1.196-1.738.79-3.184 1.852-4.316 3.202C.977 6.732 0 9.76 0 13.464v20.215zm114.333 0h9.22V13.83c0-3.221 1.172-4.841 3.536-4.841.996 0 1.836.328 2.539 1.003.703.675 1.055 1.485 1.055 2.45 0 .945-.333 1.774-1.016 2.469-.684.694-1.485 1.041-2.442 1.041-.674 0-1.332-.241-2.003-.711v9.824c.946.098 1.679.146 2.199.146 3.398 0 6.348-1.254 8.848-3.742C138.75 18.98 140 16.01 140 12.576c0-3.53-1.25-6.5-3.77-8.93C133.71 1.215 130.624 0 126.971 0c-1.836 0-3.633.405-5.371 1.196-1.739.79-3.184 1.852-4.317 3.202-1.973 2.334-2.95 5.362-2.95 9.066v20.215zM86.14 1.155l.038 20.31c.098 6.767 5.782 12.214 12.814 12.214s12.774-5.503 12.814-12.307V.77h-9.139v20.34h-.001l.001.095a3.49 3.49 0 01-3.5 3.48 3.49 3.49 0 01-3.5-3.575V.77h-9.528v.385zM86.139 0h9.528-9.528zm16.528 0h9.139-9.139z"/></g><defs><clipPath id="clip0_1_131"><path fill="#fff" d="M0 0h140v33.679H0z"/></clipPath></defs></svg>